<svg xmlns="http://www.w3.org/2000/svg" xmlns:xlink="http://www.w3.org/1999/xlink" xml:space="preserve" version="1.1" style="shape-rendering:geometricPrecision;text-rendering:geometricPrecision;image-rendering:optimizeQuality;" viewBox="0 0 716 661.25" x="0px" y="0px" fill-rule="evenodd" clip-rule="evenodd"><defs><style type="text/css">
   
    .fil0 {fill:black}
   
  </style></defs><g><path class="fil0" d="M490 55c23,1 44,9 63,29l33 110c-149,29 -308,29 -457,0l34 -110c19,-20 40,-28 62,-29 83,-9 183,-9 265,0zm-207 320l149 0c5,0 9,4 9,9 0,5 -4,9 -9,9l-149 0c-4,0 -8,-4 -8,-9 0,-5 4,-9 8,-9zm0 -31l149 0c5,0 9,4 9,9 0,5 -4,9 -9,9l-149 0c-4,0 -8,-4 -8,-9 0,-5 4,-9 8,-9zm0 -31l149 0c5,0 9,4 9,9 0,5 -4,9 -9,9l-149 0c-4,0 -8,-4 -8,-9 0,-5 4,-9 8,-9zm247 137l0 49c0,16 13,30 30,30l88 0c16,0 29,-14 29,-30 0,-74 1,-148 1,-222 -4,-9 -7,-19 -11,-28 79,7 57,-71 -33,-65l-40 -114c-12,-31 -40,-50 -81,-60 -96,-13 -215,-13 -310,0 -41,10 -69,29 -81,60l-41 114c-89,-6 -112,72 -32,65 -4,9 -7,19 -11,28 0,74 0,148 0,222 0,16 14,30 30,30l88 0c16,0 30,-14 30,-30l0 -49 344 0zm-437 -117c0,-14 1,-32 1,-39 1,-21 35,-23 44,-18 1,0 65,28 97,43 5,11 5,21 -1,29 -60,13 -117,16 -141,-15zm530 0c0,-14 -2,-32 -2,-39 0,-21 -34,-23 -43,-18 -2,0 -65,28 -97,43 -5,11 -6,21 0,29 61,13 117,16 142,-15z"/></g><text x="0" y="544" fill="#000000" font-size="5px" font-weight="bold" font-family="'Helvetica Neue', Helvetica, Arial-Unicode, Arial, Sans-serif">Created by Cho Nix</text><text x="0" y="549" fill="#000000" font-size="5px" font-weight="bold" font-family="'Helvetica Neue', Helvetica, Arial-Unicode, Arial, Sans-serif">from the Noun Project</text></svg>